<?xml version="1.0" encoding="utf-8"?>
<!-- Generator: Adobe Illustrator 19.2.1, SVG Export Plug-In . SVG Version: 6.00 Build 0)  -->
<svg version="1.1" id="Laag_1" xmlns="http://www.w3.org/2000/svg" xmlns:xlink="http://www.w3.org/1999/xlink" x="0px" y="0px"
	 viewBox="0 0 345.8 127.8" style="enable-background:new 0 0 345.8 127.8;" xml:space="preserve">
<style type="text/css">
	.st0{fill:#FFD300;}
	.st1{fill:#E63329;stroke:#E63329;stroke-width:3;}
	.st2{fill:#FFFFFF;}
</style>
<path d="M68.6,79.4c-1.6,0.5-3.3,0.8-5,0.8c-8.8,0-15.9-7.1-15.9-15.9s7.1-15.9,15.9-15.9s15.9,7.1,15.9,15.9c0,1.4-0.2,2.7-0.5,4
	l26,23.9c5.4-8,8.6-17.6,8.6-27.9c0-27.6-22.4-49.9-49.9-49.9c-27.6,0-49.9,22.3-49.9,49.9s22.4,49.9,49.9,49.9
	c11.8,0,22.6-4.1,31.1-10.9L68.6,79.4"/>
<rect x="128.2" class="st0" width="217.6" height="127.8"/>
<path d="M84.3,0.7c20.3,6.6,36.4,22.6,43,42.9V0.7H84.3 M0,43.7C6.6,23.4,22.7,7.4,43,0.8H0C0,0.8,0,43.7,0,43.7z M0,84.9v42.9h43
	C22.6,121.2,6.6,105.2,0,84.9z M84.3,127.8h43V84.9C120.7,105.2,104.6,121.2,84.3,127.8z"/>
<path class="st1" d="M68.6,79.4c-1.6,0.5-3.3,0.8-5,0.8c-8.8,0-15.9-7.1-15.9-15.9s7.1-15.9,15.9-15.9s15.9,7.1,15.9,15.9
	c0,1.4-0.2,2.7-0.5,4l16.7,15.3c3.4-5.7,5.4-12.3,5.4-19.4c0-20.7-16.8-37.4-37.4-37.4c-20.7,0-37.4,16.8-37.4,37.4
	c0,20.7,16.8,37.4,37.4,37.4c8.1,0,15.6-2.6,21.7-7L68.6,79.4L68.6,79.4z"/>
<path class="st2" d="M68.6,79.4c-1.6,0.5-3.3,0.8-5,0.8c-8.8,0-15.9-7.1-15.9-15.9s7.1-15.9,15.9-15.9s15.9,7.1,15.9,15.9
	c0,1.4-0.2,2.7-0.5,4l26,23.9l-10.3,11.1L68.6,79.4"/>
<g>
	<path d="M148,24.1h16.8c9.6,0,13.8,5.8,13.8,14.4v12.6c-0.2,7-4.1,9.1-10.9,10.6v0.2c7.5,1.5,11.3,3.4,11.3,12.5V87
		c0,9.6-4.4,16.8-14.4,16.8h-16.8V24.1 M159.8,57.1h2.7c3.1,0,4.3-1.4,4.3-6V39c0-4.6-1.2-6-4.3-6h-2.7V57.1z M159.8,94.3h2.4
		c3.4,0,5-1.4,5-6.3V73c0-5-1.5-6.3-5-6.3h-2.4V94.3z"/>
	<path d="M185.3,35.9c0-10.4,8.2-13.5,15.4-13.5c7.3,0,15.6,3.1,15.6,13.5V92c0,10.4-8.2,13.5-15.6,13.5c-7.3,0-15.4-3.1-15.4-13.5
		V35.9 M197.3,90.9c0,4.1,1.2,5,3.8,5c2.4,0,3.6-0.9,3.6-5v-54c0-4.1-1.2-5-3.6-5s-3.8,0.9-3.8,5V90.9z"/>
	<path d="M231.8,24.1l3.8,33.3c0.9,7.9,1.7,23.4,2.7,31.3h0.2c0.7-9.6,1.5-19.1,2.4-28.7l3.6-35.9h12l-9.4,79.8h-18.1L220,24.1
		H231.8"/>
	<path d="M264.9,24.1h17.8l9.1,79.8h-12l-2.1-21.7h-8.4l-2.6,21.5H256L264.9,24.1 M276.6,71.8l-2.4-33.2h-0.9l-2.9,33.2H276.6z"/>
	<path d="M326.8,53.2V35.9c0-10.4-8.2-13.5-15.6-13.5s-15.6,3.1-15.6,13.5V92c0,10.4,8.2,13.5,15.6,13.5c7.3,0,15.6-3.1,15.6-13.5
		V64.1h-0.2l0,0h-15.2v9.6h3.4v17.3c0,4.1-1.2,5-3.6,5s-3.8-0.9-3.8-5v-54c0-4.1,1.2-5,3.8-5c2.4,0,3.6,0.9,3.6,5v16.2H326.8"/>
	<path d="M55.4,64.2c0-4.5,3.7-8.2,8.2-8.2s8.2,3.7,8.2,8.2s-3.7,8.2-8.2,8.2S55.4,68.8,55.4,64.2 M58.8,64.2c0,2.7,2.2,4.8,4.8,4.8
		c2.7,0,4.8-2.2,4.8-4.8c0-2.6-2.1-4.8-4.8-4.8C61,59.5,58.8,61.6,58.8,64.2z"/>
</g>
</svg>
