<?xml version="1.0" encoding="UTF-8" standalone="no"?>
<!DOCTYPE svg PUBLIC "-//W3C//DTD SVG 1.1//EN" "http://www.w3.org/Graphics/SVG/1.1/DTD/svg11.dtd">
<svg xmlns="http://www.w3.org/2000/svg" version="1.1" viewBox="0.00 0.00 2037.00 1028.00">
<path fill="#b0b1b3" d="
  M 707.09 35.05
  Q 802.79 19.92 902.50 14.45
  Q 919.46 13.52 929.16 13.20
  Q 930.67 13.15 932.32 12.96
  Q 933.82 12.78 935.50 12.74
  Q 945.74 12.53 954.92 12.16
  C 960.59 11.93 966.28 12.24 971.88 11.77
  C 978.27 11.25 984.68 11.51 991.22 11.50
  Q 997.15 11.50 1003.78 11.28
  Q 1017.11 10.84 1030.52 11.28
  C 1041.66 11.64 1052.82 11.11 1063.86 11.85
  Q 1067.20 12.08 1070.78 12.01
  Q 1074.20 11.95 1077.70 12.10
  Q 1087.41 12.52 1097.49 12.71
  C 1100.56 12.77 1103.41 13.30 1106.46 13.24
  C 1110.40 13.16 1114.40 13.86 1118.40 13.58
  C 1119.60 13.49 1120.60 14.14 1121.84 14.04
  C 1125.05 13.77 1128.29 14.31 1131.53 14.48
  Q 1280.62 22.39 1423.35 53.07
  Q 1510.48 71.80 1593.61 100.33
  Q 1680.52 130.15 1756.27 170.15
  Q 1813.44 200.34 1860.76 235.69
  C 1943.08 297.20 2015.17 381.09 2027.61 486.22
  Q 2028.79 496.17 2029.15 506.33
  Q 2031.15 562.90 2010.30 615.81
  C 1992.67 660.55 1964.87 700.45 1931.58 735.17
  C 1891.39 777.08 1843.44 812.74 1793.02 842.39
  Q 1748.29 868.70 1700.39 890.40
  Q 1615.96 928.66 1520.99 955.58
  C 1439.53 978.69 1357.50 994.92 1274.87 1005.55
  Q 1193.30 1016.04 1111.06 1019.72
  C 1109.42 1019.79 1107.70 1019.59 1106.09 1019.92
  Q 1104.95 1020.14 1103.76 1020.18
  Q 1091.24 1020.51 1078.75 1020.90
  Q 1006.93 1023.15 930.59 1020.08
  Q 930.54 1020.08 926.41 1019.80
  C 923.95 1019.63 921.61 1019.84 919.13 1019.54
  C 916.14 1019.18 913.32 1019.59 910.32 1019.05
  C 908.69 1018.76 906.92 1019.00 905.23 1018.89
  Q 896.90 1018.35 888.99 1017.87
  Q 821.69 1013.78 752.84 1004.69
  Q 655.69 991.87 562.82 968.86
  Q 490.55 950.96 421.34 926.01
  C 358.84 903.49 297.40 875.58 240.35 841.92
  C 189.62 812.00 141.15 775.81 100.95 733.44
  C 68.85 699.61 42.94 662.20 25.79 620.62
  Q 9.14 580.28 5.68 537.87
  Q 5.49 535.61 5.41 533.25
  C 5.35 531.19 4.96 529.29 4.97 527.24
  C 5.01 517.37 4.75 507.39 5.48 497.44
  C 12.95 395.54 78.07 311.67 155.26 249.73
  C 192.77 219.63 233.80 193.50 276.60 170.83
  Q 351.44 131.20 437.18 101.49
  C 524.77 71.15 615.42 49.54 707.09 35.05
  Z
  M 1617.63 885.88
  C 1670.22 866.01 1721.76 842.20 1770.23 814.04
  C 1814.78 788.15 1856.64 758.15 1893.44 722.62
  C 1934.31 683.15 1969.12 634.29 1984.57 579.70
  Q 1999.76 526.00 1989.03 471.88
  C 1977.80 415.27 1945.65 364.52 1905.87 323.05
  C 1859.52 274.73 1803.62 236.33 1744.10 204.41
  C 1700.90 181.25 1655.50 161.22 1609.36 144.11
  C 1533.55 116.00 1454.80 95.03 1374.70 79.78
  Q 1310.98 67.66 1243.85 59.92
  Q 1161.13 50.38 1071.49 47.80
  Q 1066.68 47.67 1062.02 47.78
  C 1058.94 47.85 1055.98 47.29 1052.88 47.29
  Q 1011.52 47.26 979.32 47.31
  C 978.06 47.31 976.91 47.70 975.65 47.71
  Q 967.89 47.76 960.64 47.76
  C 960.01 47.76 959.55 48.03 959.01 48.04
  Q 921.97 48.75 872.81 52.25
  Q 742.16 61.55 619.97 87.82
  Q 520.91 109.12 429.51 142.38
  Q 357.12 168.72 291.55 203.66
  Q 231.33 235.75 183.15 273.49
  Q 152.60 297.42 126.79 324.62
  C 93.54 359.67 65.69 401.28 51.31 447.60
  Q 38.93 487.46 40.99 528.07
  C 45.50 617.42 102.23 692.15 168.42 747.64
  C 209.64 782.19 255.42 811.03 303.70 835.80
  Q 343.81 856.38 381.81 872.08
  C 488.33 916.10 602.78 945.65 717.38 963.35
  Q 832.91 981.19 949.75 984.83
  Q 950.52 984.85 958.76 985.25
  Q 963.01 985.46 967.76 985.40
  Q 969.28 985.39 970.91 985.45
  Q 980.06 985.79 990.67 985.61
  C 991.87 985.58 993.00 985.99 994.16 985.99
  Q 1017.27 986.04 1040.31 986.00
  C 1040.97 986.00 1041.41 985.64 1042.02 985.65
  Q 1052.25 985.76 1063.50 985.44
  Q 1064.77 985.40 1065.99 985.40
  Q 1070.99 985.39 1075.51 985.19
  Q 1080.61 984.96 1085.00 984.82
  Q 1188.74 981.51 1291.37 967.13
  Q 1381.89 954.45 1470.49 932.05
  Q 1545.88 912.98 1617.63 885.88
  Z"
/>
<path fill="#b0b1b3" d="
  M 746.96 399.89
  Q 747.26 399.18 746.49 399.18
  L 701.06 399.17
  A 0.65 0.65 0.0 0 1 700.45 398.29
  L 714.98 360.02
  Q 715.26 359.27 716.06 359.27
  Q 743.67 359.23 773.64 359.31
  C 776.89 359.32 780.30 359.79 783.48 360.43
  C 793.92 362.55 796.84 370.36 797.95 379.76
  A 0.29 0.29 0.0 0 0 798.44 379.93
  C 810.72 367.74 826.18 357.50 843.26 354.27
  Q 851.20 352.77 859.48 354.04
  Q 867.34 355.25 872.11 358.97
  C 878.28 363.78 881.76 371.56 883.34 379.19
  A 0.51 0.50 61.0 0 0 884.20 379.44
  Q 893.80 369.47 905.24 363.14
  Q 924.54 352.46 945.90 353.59
  C 948.52 353.73 951.45 354.29 953.89 355.12
  C 971.31 361.09 976.43 377.51 972.41 394.50
  Q 970.07 404.33 966.35 414.06
  Q 944.57 470.94 922.91 527.48
  A 0.38 0.38 0.0 0 0 923.26 528.00
  L 950.24 528.00
  A 0.57 0.56 87.6 0 0 950.80 527.38
  C 948.82 504.04 959.83 473.84 977.68 457.51
  C 988.66 447.45 1002.73 439.01 1017.24 436.51
  Q 1027.87 434.68 1040.36 437.43
  C 1052.63 440.12 1060.83 449.58 1063.50 461.42
  C 1066.29 473.77 1060.95 485.83 1052.85 495.30
  Q 1037.58 513.15 1015.80 522.55
  Q 1003.96 527.66 992.21 531.67
  Q 990.80 532.15 992.29 532.15
  L 1071.04 532.11
  A 0.94 0.94 0.0 0 0 1071.98 531.07
  Q 1070.98 520.89 1072.67 510.68
  C 1077.93 478.90 1096.87 444.70 1132.64 441.42
  Q 1134.75 441.23 1136.89 440.99
  Q 1139.31 440.72 1141.67 440.72
  Q 1162.90 440.77 1183.32 440.75
  A 0.54 0.54 0.0 0 1 1183.82 441.50
  L 1169.31 474.99
  A 1.27 1.26 11.8 0 1 1168.13 475.76
  Q 1157.36 475.64 1147.35 475.82
  C 1142.43 475.90 1136.45 476.93 1132.14 479.27
  C 1121.96 484.80 1115.52 497.91 1112.67 509.12
  Q 1111.36 514.30 1112.21 518.08
  C 1114.55 528.48 1130.11 528.97 1138.08 528.84
  Q 1138.59 528.83 1139.06 529.02
  Q 1139.57 529.23 1140.11 529.23
  Q 1154.35 529.26 1168.17 529.24
  Q 1168.67 529.24 1168.85 528.78
  L 1234.55 359.74
  Q 1234.74 359.26 1235.26 359.26
  L 1275.99 359.26
  A 0.46 0.46 0.0 0 1 1276.42 359.88
  L 1242.24 448.94
  Q 1241.87 449.91 1242.70 449.30
  C 1257.38 438.52 1280.38 429.26 1297.83 436.82
  Q 1310.91 442.49 1310.84 457.91
  C 1310.79 468.58 1307.51 479.49 1303.78 489.36
  Q 1296.48 508.65 1288.69 528.40
  Q 1288.35 529.25 1289.26 529.25
  L 1315.50 529.25
  Q 1316.03 529.25 1316.01 528.72
  Q 1315.43 510.27 1321.07 495.75
  C 1327.31 479.71 1337.62 466.00 1350.16 454.24
  Q 1366.24 439.15 1388.51 436.27
  Q 1400.21 434.76 1411.02 438.65
  C 1417.28 440.90 1421.89 444.53 1425.31 449.98
  A 0.53 0.53 0.0 0 0 1426.25 449.89
  L 1429.59 441.22
  A 0.76 0.75 10.9 0 1 1430.29 440.75
  L 1470.81 440.75
  A 0.43 0.42 10.7 0 1 1471.21 441.33
  L 1437.68 528.46
  A 0.58 0.58 0.0 0 0 1438.22 529.25
  L 1458.28 529.25
  A 0.62 0.61 -79.8 0 0 1458.86 528.84
  L 1490.86 441.35
  Q 1491.08 440.74 1491.73 440.74
  L 1532.77 440.75
  A 0.41 0.40 -79.4 0 1 1533.14 441.30
  L 1527.41 456.13
  Q 1526.95 457.31 1527.97 456.56
  C 1539.45 448.14 1552.09 440.64 1565.97 439.26
  Q 1572.26 438.64 1579.78 440.63
  C 1589.60 443.22 1597.13 451.26 1598.49 460.98
  C 1599.78 470.27 1597.04 480.13 1593.75 488.78
  Q 1586.52 507.81 1578.77 528.62
  A 0.46 0.46 0.0 0 0 1579.20 529.24
  L 1597.54 529.25
  Q 1598.14 529.25 1598.25 528.65
  Q 1600.43 516.06 1604.84 504.45
  Q 1617.25 471.82 1629.07 441.37
  A 0.98 0.97 10.5 0 1 1629.98 440.75
  L 1670.15 440.75
  A 0.51 0.51 0.0 0 1 1670.63 441.45
  L 1636.80 528.56
  Q 1636.53 529.25 1637.27 529.25
  L 1664.95 529.25
  Q 1665.45 529.25 1665.35 528.76
  Q 1664.82 526.11 1664.95 523.51
  Q 1666.46 493.34 1681.77 469.51
  C 1690.65 455.69 1704.44 444.92 1721.08 442.14
  C 1726.70 441.21 1732.43 440.69 1738.43 440.71
  Q 1758.04 440.78 1776.98 440.74
  A 0.44 0.44 0.0 0 1 1777.39 441.35
  L 1762.76 475.19
  Q 1762.53 475.73 1761.94 475.73
  C 1752.55 475.76 1742.09 474.97 1732.59 476.83
  Q 1726.26 478.07 1721.64 481.90
  C 1713.39 488.74 1708.21 500.09 1705.88 510.65
  C 1703.74 520.35 1708.63 525.98 1717.99 527.71
  Q 1724.91 529.00 1731.60 528.81
  C 1732.51 528.78 1733.46 529.26 1734.35 529.26
  Q 1762.36 529.25 1791.30 529.25
  Q 1792.61 529.25 1791.58 530.06
  Q 1781.40 538.10 1770.21 545.97
  Q 1763.47 550.71 1756.35 554.84
  Q 1735.64 566.83 1712.20 566.09
  Q 1706.98 565.93 1702.53 565.91
  Q 1637.03 565.60 1567.24 565.88
  Q 1560.74 565.90 1556.67 564.60
  C 1546.56 561.36 1538.04 553.43 1536.52 542.74
  Q 1535.06 532.46 1538.83 522.37
  Q 1544.89 506.16 1550.84 490.90
  Q 1552.73 486.05 1553.42 481.24
  Q 1553.74 478.97 1552.74 476.54
  C 1551.68 473.98 1548.57 473.68 1546.24 474.14
  Q 1537.46 475.88 1530.70 481.21
  Q 1521.10 488.77 1514.19 499.48
  Q 1503.46 516.11 1496.36 535.63
  Q 1491.82 548.10 1486.09 565.71
  Q 1485.92 566.25 1485.34 566.25
  Q 1466.21 566.27 1445.95 566.24
  C 1440.89 566.23 1435.98 565.91 1430.99 565.81
  C 1423.56 565.65 1417.67 564.26 1411.68 559.34
  Q 1404.83 553.72 1401.33 547.55
  Q 1401.04 547.05 1400.58 547.41
  C 1389.99 555.70 1379.79 562.23 1367.07 564.65
  Q 1360.64 565.87 1350.07 565.84
  Q 1308.91 565.75 1274.97 565.80
  C 1262.74 565.81 1249.34 558.76 1247.27 545.69
  C 1245.52 534.54 1249.20 522.23 1253.21 512.01
  Q 1259.65 495.57 1265.87 478.81
  Q 1267.29 474.98 1266.62 471.23
  A 1.48 1.47 16.5 0 0 1266.20 470.46
  Q 1264.31 468.63 1261.83 468.49
  Q 1258.14 468.29 1254.28 469.77
  C 1243.18 474.01 1234.64 483.64 1228.29 493.49
  Q 1219.77 506.69 1214.02 522.11
  Q 1206.07 543.43 1197.59 565.29
  Q 1197.39 565.82 1196.82 565.82
  Q 1052.83 565.72 911.53 565.86
  Q 902.46 565.87 897.49 564.84
  C 886.11 562.48 874.95 555.75 873.30 543.46
  Q 872.55 537.93 873.75 532.44
  Q 874.79 527.73 877.33 521.14
  Q 898.16 467.01 918.52 414.24
  Q 921.45 406.64 921.95 400.81
  Q 922.08 399.25 921.51 397.77
  C 920.09 394.11 910.95 394.46 908.30 395.14
  Q 897.36 397.95 889.89 405.91
  C 882.33 413.97 877.85 424.40 873.64 435.42
  Q 849.48 498.65 824.86 562.80
  A 0.90 0.90 0.0 0 1 824.02 563.38
  L 778.14 563.37
  A 0.46 0.46 0.0 0 1 777.71 562.75
  Q 803.98 494.06 828.20 430.93
  Q 832.33 420.18 834.47 411.36
  Q 835.90 405.49 835.17 399.93
  C 834.56 395.19 828.42 393.91 824.51 394.28
  C 808.08 395.83 797.06 401.87 788.73 415.99
  C 784.36 423.39 781.33 430.54 778.04 439.18
  Q 754.60 500.71 731.11 562.62
  A 1.18 1.16 -79.4 0 1 730.02 563.38
  L 684.96 563.37
  Q 684.26 563.37 684.51 562.72
  Q 713.59 486.60 742.46 410.98
  Q 744.67 405.19 746.96 399.89
  Z
  M 994.73 499.41
  Q 994.64 500.27 995.45 499.96
  C 1008.08 495.13 1024.27 486.09 1028.10 472.39
  Q 1029.66 466.81 1024.11 466.31
  C 1018.37 465.80 1012.46 469.54 1008.43 473.43
  C 1001.16 480.43 995.70 489.64 994.73 499.41
  Z
  M 1364.49 522.71
  C 1367.70 528.06 1374.34 528.62 1379.74 526.61
  C 1391.85 522.10 1400.08 513.24 1406.35 502.06
  C 1410.99 493.77 1415.42 481.74 1405.74 474.96
  C 1394.50 467.10 1379.69 479.99 1372.86 488.90
  Q 1364.57 499.71 1362.75 512.59
  C 1362.28 515.95 1362.79 519.89 1364.49 522.71
  Z"
/>
<path fill="#b0b1b3" d="
  M 563.66 531.73
  A 0.22 0.22 0.0 0 0 563.73 532.15
  L 669.51 532.11
  Q 670.60 532.11 669.82 532.86
  C 652.97 549.16 632.93 560.72 610.16 564.49
  Q 601.66 565.90 590.61 565.88
  Q 534.82 565.74 480.82 565.80
  Q 473.94 565.81 466.76 562.17
  C 455.30 556.36 452.12 545.35 454.15 533.07
  Q 455.78 523.22 459.75 512.94
  Q 466.28 496.02 472.37 480.03
  Q 473.79 476.30 473.73 472.43
  C 473.67 468.98 469.08 468.10 466.49 468.48
  Q 457.14 469.85 449.24 476.96
  Q 438.37 486.75 430.71 500.86
  Q 423.01 515.02 418.61 528.42
  Q 412.30 547.63 406.40 565.75
  Q 406.24 566.25 405.72 566.25
  Q 324.01 566.27 243.38 566.23
  Q 242.74 566.23 243.21 565.79
  Q 243.29 565.71 243.34 565.60
  Q 274.41 483.16 305.53 400.74
  Q 305.64 400.45 305.90 400.29
  Q 306.50 399.92 305.95 399.48
  Q 305.57 399.18 305.10 399.18
  Q 277.28 399.17 248.17 399.18
  A 0.50 0.49 -79.7 0 1 247.71 398.51
  L 262.36 359.93
  A 0.95 0.94 10.2 0 1 263.25 359.32
  L 422.51 359.30
  A 0.37 0.37 0.0 0 1 422.86 359.80
  L 408.38 398.73
  Q 408.22 399.18 407.75 399.18
  L 353.51 399.17
  A 0.37 0.36 -79.5 0 0 353.17 399.41
  L 304.89 527.07
  Q 304.69 527.61 305.25 527.61
  L 377.25 527.61
  Q 377.93 527.61 378.17 526.97
  L 441.38 359.86
  A 0.95 0.93 10.4 0 1 442.26 359.26
  L 482.47 359.26
  Q 483.53 359.26 483.15 360.25
  L 449.13 448.87
  Q 448.75 449.86 449.60 449.23
  C 458.77 442.51 469.19 437.62 480.20 435.24
  C 495.54 431.94 516.21 435.54 517.61 455.04
  Q 517.99 460.35 517.30 465.06
  Q 515.70 475.91 510.82 488.90
  Q 504.00 507.08 495.43 528.73
  A 0.38 0.37 10.7 0 0 495.78 529.24
  L 522.05 529.25
  Q 522.72 529.25 522.70 528.58
  C 522.64 526.00 522.13 523.56 522.24 520.95
  Q 523.55 491.24 540.78 467.16
  Q 545.96 459.93 553.83 453.67
  C 564.14 445.48 575.33 439.05 588.26 436.66
  C 597.71 434.91 607.43 435.83 616.14 438.64
  C 625.95 441.80 632.89 451.48 635.26 461.32
  C 637.90 472.28 633.43 484.08 626.51 492.87
  C 613.83 508.96 597.59 519.18 577.97 526.54
  Q 570.73 529.26 563.66 531.73
  Z
  M 597.84 466.75
  C 592.32 464.95 585.74 468.42 581.70 471.98
  C 574.04 478.74 567.72 488.41 566.50 498.83
  Q 566.35 500.15 567.60 499.70
  C 576.84 496.39 585.84 491.04 592.79 484.26
  Q 597.29 479.89 599.60 473.13
  C 600.33 470.98 600.61 467.65 597.84 466.75
  Z"
/>
<path fill="#b0b1b3" d="
  M 1646.26 396.69
  L 1660.76 359.48
  A 0.34 0.34 0.0 0 1 1661.07 359.26
  L 1701.65 359.26
  A 0.34 0.34 0.0 0 1 1701.97 359.72
  L 1687.52 396.90
  A 0.34 0.34 0.0 0 1 1687.21 397.12
  L 1646.58 397.15
  A 0.34 0.34 0.0 0 1 1646.26 396.69
  Z"
/>
<path fill="#fff" d="
  M 1448.44 659.00
  C 1449.09 664.49 1447.00 668.81 1444.64 673.68
  A 1.20 1.19 22.3 0 1 1443.17 674.29
  L 1439.78 673.13
  Q 1438.77 672.78 1439.23 671.82
  Q 1442.16 665.72 1441.46 659.04
  Q 1441.40 658.48 1441.96 658.48
  L 1447.81 658.44
  Q 1448.38 658.43 1448.44 659.00
  Z"
/>
<path fill="#fff" d="
  M 653.17 700.23
  Q 659.35 703.38 666.15 702.89
  C 669.11 702.67 673.15 701.43 673.87 698.12
  Q 675.12 692.34 669.47 689.49
  Q 665.99 687.73 662.00 686.41
  C 657.67 684.97 652.60 681.93 651.69 677.34
  Q 650.29 670.29 653.76 665.85
  C 658.93 659.20 671.40 660.24 678.43 663.16
  Q 679.61 663.65 679.15 664.85
  L 677.85 668.27
  Q 677.38 669.47 676.20 668.95
  Q 669.62 666.05 663.52 667.37
  Q 657.93 668.58 658.40 674.10
  C 658.64 676.97 661.97 679.10 664.30 680.00
  C 672.83 683.32 682.21 686.25 681.36 697.41
  C 680.86 704.06 675.53 707.73 669.33 708.47
  Q 659.30 709.68 651.08 706.14
  Q 650.04 705.70 650.42 704.64
  L 651.83 700.76
  Q 652.20 699.73 653.17 700.23
  Z"
/>
<path fill="#fff" d="
  M 726.72 691.47
  Q 724.73 689.55 722.37 688.64
  C 715.19 685.89 705.88 683.84 705.68 674.07
  C 705.56 667.92 709.32 663.04 715.21 661.66
  Q 724.19 659.57 733.27 663.25
  Q 734.01 663.55 733.75 664.30
  L 732.24 668.75
  Q 731.94 669.63 731.12 669.18
  Q 725.92 666.35 719.06 667.18
  C 711.24 668.13 710.75 676.65 717.65 679.43
  Q 723.71 681.86 729.00 684.50
  Q 735.08 687.54 735.76 694.47
  Q 736.66 703.49 729.15 707.03
  C 724.75 709.10 719.82 708.83 715.15 708.61
  Q 711.05 708.42 705.65 706.12
  Q 704.48 705.62 704.93 704.43
  L 706.38 700.69
  Q 706.78 699.66 707.76 700.17
  Q 714.91 703.96 722.82 702.55
  C 726.50 701.90 729.05 699.38 728.66 695.48
  Q 728.42 693.13 726.72 691.47
  Z"
/>
<path fill="#fff" d="
  M 977.99 661.36
  Q 991.26 663.83 994.65 677.83
  Q 996.09 683.81 995.00 690.10
  Q 993.13 700.89 985.40 705.58
  Q 978.06 710.04 969.07 708.40
  Q 956.71 706.16 952.72 693.54
  Q 950.93 687.91 951.77 680.74
  Q 952.40 675.27 955.11 670.70
  C 959.80 662.79 969.25 659.74 977.99 661.36
  Z
  M 960.55 675.59
  Q 957.54 682.77 959.43 690.93
  Q 961.75 700.97 971.33 702.68
  C 980.65 704.34 987.31 696.77 987.89 687.97
  C 988.27 682.18 987.94 676.59 984.27 671.94
  Q 980.44 667.09 973.66 667.07
  Q 964.13 667.05 960.55 675.59
  Z"
/>
<path fill="#fff" d="
  M 1030.10 665.69
  C 1037.01 659.90 1048.12 659.37 1055.82 663.96
  C 1062.46 667.92 1065.98 675.79 1065.86 683.27
  C 1065.79 688.03 1065.94 691.95 1063.83 696.50
  Q 1058.80 707.34 1047.38 708.57
  Q 1044.83 708.84 1041.94 708.68
  Q 1039.04 708.52 1036.45 707.61
  Q 1027.08 704.35 1023.75 694.72
  C 1020.46 685.19 1021.94 672.52 1030.10 665.69
  Z
  M 1044.0700 703.0800
  A 18.17 14.98 90.0 0 0 1059.0500 684.9100
  A 18.17 14.98 90.0 0 0 1044.0700 666.7400
  A 18.17 14.98 90.0 0 0 1029.0900 684.9100
  A 18.17 14.98 90.0 0 0 1044.0700 703.0800
  Z"
/>
<path fill="#fff" d="
  M 1384.38 662.29
  C 1395.08 658.95 1406.20 661.78 1411.60 671.95
  C 1416.15 680.53 1415.40 693.54 1409.35 701.30
  C 1404.93 706.97 1398.36 708.99 1391.14 708.76
  C 1379.41 708.39 1371.83 699.61 1370.78 688.41
  Q 1370.22 682.39 1371.48 677.24
  Q 1373.85 667.62 1382.56 663.04
  Q 1383.42 662.59 1384.38 662.29
  Z
  M 1406.64 690.38
  C 1408.94 679.03 1404.24 665.15 1389.92 667.25
  C 1383.59 668.17 1379.65 673.23 1378.33 679.41
  C 1376.56 687.71 1378.54 698.49 1387.32 701.86
  C 1396.46 705.35 1404.74 699.77 1406.64 690.38
  Z"
/>
<path fill="#fff" d="
  M 1477.24 700.29
  Q 1483.06 703.35 1489.88 702.88
  C 1492.29 702.72 1495.69 701.86 1497.03 699.67
  C 1500.16 694.55 1495.87 690.07 1490.89 688.37
  Q 1485.76 686.61 1481.43 684.41
  Q 1475.95 681.61 1475.27 675.84
  C 1473.35 659.30 1492.33 658.77 1502.48 663.28
  Q 1503.47 663.72 1503.07 664.72
  L 1501.52 668.61
  Q 1501.19 669.45 1500.36 669.08
  Q 1493.25 665.91 1487.09 667.45
  Q 1481.34 668.89 1482.32 674.35
  Q 1482.91 677.68 1487.03 679.45
  Q 1491.79 681.48 1496.11 683.34
  Q 1505.89 687.55 1505.08 697.54
  Q 1504.73 701.96 1501.97 704.51
  Q 1498.40 707.82 1493.51 708.43
  Q 1482.97 709.74 1474.94 706.15
  Q 1473.78 705.64 1474.25 704.46
  L 1475.66 700.87
  Q 1476.13 699.71 1477.24 700.29
  Z"
/>
<path fill="#fff" d="
  M 534.85 662.31
  Q 535.97 661.92 537.31 661.86
  Q 545.16 661.54 551.14 661.90
  Q 554.18 662.08 557.55 663.49
  C 563.50 665.98 566.08 671.31 565.65 677.49
  C 564.97 687.33 557.87 689.97 549.17 690.88
  Q 544.99 691.32 540.41 690.85
  A 0.43 0.42 3.1 0 0 539.94 691.27
  L 539.92 707.63
  Q 539.92 707.82 539.74 707.82
  L 533.52 707.81
  Q 533.30 707.80 533.30 707.59
  Q 533.32 686.02 533.29 663.40
  Q 533.29 662.41 534.29 662.41
  A 2.05 1.91 32.9 0 0 534.85 662.31
  Z
  M 539.90 667.99
  L 539.96 684.69
  A 0.42 0.42 0.0 0 0 540.38 685.11
  L 548.16 685.08
  A 10.36 7.87 -0.2 0 0 558.49 677.18
  L 558.49 675.38
  A 10.36 7.87 -0.2 0 0 548.10 667.54
  L 540.32 667.57
  A 0.42 0.42 0.0 0 0 539.90 667.99
  Z"
/>
<path fill="#fff" d="
  M 806.92 701.13
  Q 806.85 701.55 807.18 701.80
  Q 807.52 702.05 807.93 702.05
  Q 818.44 702.03 829.31 702.07
  Q 829.63 702.07 829.63 702.38
  L 829.61 707.42
  Q 829.61 707.81 829.22 707.81
  L 800.54 707.81
  Q 800.00 707.81 800.00 707.27
  L 800.00 663.05
  A 0.96 0.95 90.0 0 1 800.95 662.09
  L 827.24 662.13
  Q 827.97 662.13 827.97 662.87
  L 827.95 667.27
  Q 827.94 667.98 827.23 667.98
  L 807.34 667.93
  Q 806.98 667.93 806.98 668.29
  L 806.99 680.76
  A 0.27 0.26 0.0 0 0 807.26 681.02
  L 825.14 681.06
  Q 825.98 681.06 825.98 681.89
  L 825.98 686.11
  Q 825.97 686.96 825.13 686.95
  L 807.49 686.90
  A 0.48 0.48 0.0 0 0 807.01 687.37
  Q 806.95 692.68 807.11 698.38
  Q 807.15 699.76 806.92 701.13
  Z"
/>
<path fill="#fff" d="
  M 1117.99 689.37
  Q 1124.87 697.79 1129.71 707.65
  Q 1129.79 707.80 1129.63 707.80
  L 1122.36 707.79
  Q 1122.16 707.79 1122.06 707.61
  Q 1117.39 699.02 1110.86 690.65
  Q 1110.53 690.22 1110.00 690.22
  L 1102.11 690.17
  A 0.48 0.48 0.0 0 0 1101.62 690.65
  L 1101.64 707.33
  A 0.47 0.46 -0.0 0 1 1101.17 707.79
  L 1095.01 707.82
  Q 1094.63 707.83 1094.63 707.45
  L 1094.64 663.27
  Q 1094.64 662.73 1095.16 662.57
  Q 1097.22 661.93 1099.46 661.83
  Q 1105.84 661.56 1111.87 661.81
  Q 1115.14 661.95 1118.70 663.46
  C 1125.20 666.23 1127.77 672.02 1126.51 679.08
  C 1125.78 683.17 1122.56 687.11 1118.27 688.46
  Q 1117.45 688.71 1117.99 689.37
  Z
  M 1101.65 668.06
  L 1101.63 683.84
  A 0.50 0.50 0.0 0 0 1102.13 684.35
  L 1109.89 684.36
  A 9.82 7.92 0.1 0 0 1119.72 676.46
  L 1119.72 675.52
  A 9.82 7.92 0.1 0 0 1109.91 667.58
  L 1102.15 667.57
  A 0.50 0.50 0.0 0 0 1101.65 668.06
  Z"
/>
<path fill="#fff" d="
  M 627.06 707.04
  Q 627.33 707.82 626.50 707.82
  L 620.62 707.82
  Q 619.81 707.82 619.54 707.06
  L 615.96 696.89
  A 0.90 0.90 0.0 0 0 615.11 696.28
  L 596.02 696.29
  A 0.72 0.72 0.0 0 0 595.34 696.77
  L 591.65 707.53
  A 0.37 0.36 8.1 0 1 591.32 707.77
  L 584.51 707.84
  Q 584.36 707.84 584.41 707.70
  Q 592.09 685.36 602.03 663.24
  A 1.95 1.94 -77.7 0 1 603.82 662.09
  L 608.15 662.12
  A 1.57 1.57 0.0 0 1 609.57 663.05
  Q 619.13 684.36 627.06 707.04
  Z
  M 597.77 689.71
  A 0.60 0.60 0.0 0 0 598.33 690.53
  L 612.97 690.51
  A 0.60 0.60 0.0 0 0 613.53 689.69
  L 606.18 671.03
  A 0.60 0.60 0.0 0 0 605.06 671.04
  L 597.77 689.71
  Z"
/>
<rect fill="#fff" x="762.52" y="662.11" width="7.00" height="45.70" rx="0.49"/>
<path fill="#fff" d="
  M 908.46 698.87
  Q 915.35 681.39 921.67 662.33
  Q 921.76 662.05 922.05 662.05
  L 928.81 662.11
  A 0.21 0.21 0.0 0 1 929.01 662.39
  Q 921.69 684.13 911.53 707.13
  Q 911.22 707.82 910.46 707.82
  L 905.30 707.81
  Q 904.80 707.81 904.59 707.35
  Q 894.54 685.29 886.88 662.24
  A 0.12 0.12 0.0 0 1 886.99 662.08
  Q 890.95 662.04 894.36 662.25
  Q 894.50 662.26 894.54 662.39
  Q 900.50 680.83 907.80 698.87
  A 0.36 0.36 0.0 0 0 908.46 698.87
  Z"
/>
<path fill="#fff" d="
  M 1216.76 696.76
  A 0.71 0.70 -9.1 0 0 1216.09 696.28
  L 1197.06 696.29
  A 0.99 0.99 0.0 0 0 1196.12 696.96
  L 1192.47 707.58
  Q 1192.40 707.78 1192.18 707.79
  L 1185.43 707.84
  Q 1185.23 707.85 1185.29 707.65
  Q 1192.99 684.92 1203.06 662.83
  A 1.28 1.27 12.2 0 1 1204.22 662.09
  L 1208.46 662.10
  A 2.34 2.33 77.9 0 1 1210.59 663.48
  Q 1220.50 685.67 1228.06 707.68
  A 0.13 0.12 -9.7 0 1 1227.94 707.84
  L 1220.96 707.80
  A 0.52 0.52 0.0 0 1 1220.48 707.45
  L 1216.76 696.76
  Z
  M 1198.61 689.69
  A 0.62 0.62 0.0 0 0 1199.19 690.54
  L 1213.78 690.51
  A 0.62 0.62 0.0 0 0 1214.35 689.66
  L 1207.03 671.10
  A 0.62 0.62 0.0 0 0 1205.87 671.10
  L 1198.61 689.69
  Z"
/>
<path fill="#fff" d="
  M 1280.38 693.34
  Q 1280.64 691.39 1280.64 689.54
  Q 1280.64 677.32 1280.67 662.85
  Q 1280.67 662.04 1281.48 662.05
  L 1286.44 662.10
  Q 1287.24 662.11 1287.23 662.91
  Q 1287.16 676.03 1287.30 690.13
  Q 1287.36 696.19 1285.71 699.89
  Q 1282.87 706.24 1275.39 708.25
  C 1272.83 708.94 1267.92 709.01 1265.33 708.46
  Q 1257.27 706.75 1254.21 699.96
  Q 1252.55 696.29 1252.60 691.04
  Q 1252.75 675.13 1252.64 662.82
  A 0.77 0.77 0.0 0 1 1253.42 662.05
  L 1258.39 662.10
  A 0.85 0.84 -89.7 0 1 1259.22 662.95
  Q 1259.24 677.33 1259.34 691.49
  Q 1259.36 695.22 1261.20 698.12
  C 1264.85 703.91 1274.26 704.54 1278.26 698.79
  Q 1279.97 696.34 1280.38 693.34
  Z"
/>
<path fill="#fff" d="
  M 1313.10 667.44
  L 1313.16 662.68
  A 0.48 0.48 0.0 0 1 1313.64 662.21
  L 1347.65 662.17
  A 0.48 0.48 0.0 0 1 1348.13 662.65
  L 1348.11 667.52
  A 0.48 0.48 0.0 0 1 1347.63 668.00
  L 1334.63 667.92
  A 0.48 0.48 0.0 0 0 1334.15 668.40
  L 1334.14 707.37
  A 0.48 0.48 0.0 0 1 1333.65 707.85
  L 1327.46 707.74
  A 0.48 0.48 0.0 0 1 1326.99 707.26
  L 1327.18 668.45
  A 0.48 0.48 0.0 0 0 1326.70 667.97
  L 1313.58 667.93
  A 0.48 0.48 0.0 0 1 1313.10 667.44
  Z"
/>
<rect fill="#fff" x="440.70" y="682.29" width="32.96" height="5.40" rx="0.67"/>
<rect fill="#fff" x="1560.82" y="682.29" width="33.40" height="5.40" rx="0.53"/>
</svg>
