<svg xmlns:dc="http://purl.org/dc/elements/1.1/" xmlns:cc="http://creativecommons.org/ns#" xmlns:rdf="http://www.w3.org/1999/02/22-rdf-syntax-ns#" xmlns:svg="http://www.w3.org/2000/svg" xmlns="http://www.w3.org/2000/svg" xmlns:sodipodi="http://sodipodi.sourceforge.net/DTD/sodipodi-0.dtd" xmlns:inkscape="http://www.inkscape.org/namespaces/inkscape" id="Layer_1" viewBox="0 0 6868.8 2339.8" width="6868.8" height="2339.8" sodipodi:docname="rdw.svg" inkscape:version="1.0.2 (e86c870879, 2021-01-15, custom)"><metadata></metadata><defs id="defs11"></defs><style id="style2">.st0{fill:#e46f26}</style><path class="st0" d="M 3585.3707,336.58373 2974.9787,30.557211 h -0.095 c -44.6093,5.790204 -95.332,13.668678 -136.5979,20.787782 l 415.2385,182.818577 c -11.7493,5.22067 -16.43,6.83434 -26.4599,11.20072 L 2784.8879,61.121895 c -84.4423,15.756948 -169.4578,35.120906 -241.2911,54.484865 l 397.0891,130.42198 c -18.4359,8.63784 -23.4031,11.01088 -42.4122,20.02841 L 2468.9933,135.44533 c -127.6187,36.16505 -258.3897,79.63904 -431.8595,151.68436 h 0.096 l 808.0291,143.42621 c -22.7345,12.14993 -36.4898,20.12333 -59.3198,32.74787 L 1925.945,335.34975 c -204.9923,88.65657 -442.6536,224.77383 -631.9802,350.35481 h 0.096 l 846.3338,0.18984 h 0.095 c -38.6868,24.8694 -71.4512,45.65719 -117.5888,78.49998 l 0.7642,-0.75937 -885.4983,30.185 0.191,0.0949 c -162.67556,116.6584 -328.59902,256.38269 -424.98174,342.66619 -93.51702,83.8156 -369.48299,367.9153 -495.7644,623.3487 l 1032.69924,-272.899 0.095,0.095 c -46.4242,69.5774 -84.1558,142.0024 -106.5081,206.549 l 1121.5361,-360.7963 c -11.7493,-265.6849 242.2464,-502.98837 414.8564,-646.9841 h 142.3293 c -220.7537,189.84276 -322.7722,402.8463 -294.0198,563.1685 l 351.047,-112.9564 c -86.2572,-220.2176 144.8129,-611.95812 705.724,-799.52277 m -232.8851,-38.82284 68.5855,28.66626 c -114.9141,46.70131 -217.8879,97.57917 -309.3034,151.01991 l -94.2813,-15.66203 C 3101.6422,411.4767 3225.44,350.53718 3352.4856,297.76089" id="path4" style="stroke-width:0.952217"></path><path d="m 3814.249,547.49857 v 320.3 l 105.5,43.4 v 31 h -327.7 v -31 l 105.5,-43.4 v -679 l -105.5,-43.5 v -31 h 336.4 c 99.3,0 136.5,9.9 182.5,45.9 45.9,36 70.7,89.4 70.7,152.7 0,111.7 -74.4,192.4 -197.3,212.3 l 249.5,341.3 95.6,44.7 v 31 h -198.6 l -271.9,-394.7 z m 0,-49.6 h 83.1 c 91.9,0 153.9,-70.8 153.9,-173.8 0,-101.8 -54.6,-160.1 -150.2,-160.1 h -86.8 z m 525,444.4 v -31 l 105.5,-43.4 v -679 l -105.5,-43.6 v -31 h 371.1 c 160.1,0 243.3,29.8 317.8,113 65.8,74.5 96.8,166.3 96.8,283 0,150.2 -54.6,275.6 -153.9,352.5 -72,55.9 -156.4,79.4 -279.3,79.4 h -352.5 z m 222.2,-55.9 h 119.1 c 106.8,0 163.9,-21.1 224.7,-84.4 67,-70.8 96.8,-157.7 96.8,-279.3 0,-104.3 -22.3,-183.7 -69.5,-247 -55.9,-75.7 -124.2,-105.5 -237.1,-105.5 h -134.1 v 716.2 z m 1175.7,-578.5 -228.4,646.7 h -50.9 l -250.7,-765.8 -95.6,-43.5 v -31 h 314 v 31 l -94.3,43.4 144,466.7 c 6.2,17.4 9.9,33.5 14.9,48.4 6.2,26.1 9.9,39.7 9.9,43.4 2.4,4.9 4.9,13.7 8.7,23.6 l 228.4,-656.5 h 55.9 l 176.3,544.9 c 19.8,57.1 24.8,78.2 32.2,119.2 l 196.1,-589.6 -95.5,-43.5 v -31 h 276.8 v 31 l -96.8,43.4 -280.5,765.9 h -50.9 z" id="path6"></path><text xml:space="preserve" style="font-style:normal;font-variant:normal;font-weight:normal;font-stretch:normal;font-size:192px;line-height:1.25;font-family:Candara;-inkscape-font-specification:'Candara, Normal';font-variant-ligatures:normal;font-variant-caps:normal;font-variant-numeric:normal;font-variant-east-asian:normal;letter-spacing:10px" x="3548.6987" y="1627.3939" id="text840"><tspan sodipodi:role="line" id="tspan838" x="3548.6987" y="1627.3939" style="font-style:normal;font-variant:normal;font-weight:normal;font-stretch:normal;font-size:666.667px;font-family:Calibri;-inkscape-font-specification:'Calibri, Normal';font-variant-ligatures:normal;font-variant-caps:normal;font-variant-numeric:normal;font-variant-east-asian:normal">erkend</tspan></text></svg>